<?xml version="1.0" encoding="utf-8"?>
<!-- Generator: Adobe Illustrator 16.2.1, SVG Export Plug-In . SVG Version: 6.00 Build 0)  -->
<!DOCTYPE svg PUBLIC "-//W3C//DTD SVG 1.1//EN" "http://www.w3.org/Graphics/SVG/1.1/DTD/svg11.dtd">
<svg version="1.1" xmlns="http://www.w3.org/2000/svg" xmlns:xlink="http://www.w3.org/1999/xlink" x="0px" y="0px" width="20px"
	 height="20px" viewBox="0 0 20 20" enable-background="new 0 0 20 20" fill="#2ea2cc" xml:space="preserve">
<g id="Layer_14" display="none">
	<path display="inline" d="M10,5.475l-6,6V18h12v-6.525L10,5.475z M12,17H8v-5h4V17z"/>
	<polygon display="inline" points="16,7.939 16,4 14,4 14,5.939 10,1.939 2.47,9.47 3.53,10.53 10,4.061 16.47,10.53 17.53,9.47
		"/>
</g>
<g id="Layer_15" display="none">
	<path display="inline" d="M10,3C6.829,3,4.155,5.109,3.294,8H1l2.031,2.611L4.5,12.5L5.667,11L8,8H6.039
		C6.773,6.549,8.262,5.545,10,5.545c1.308,0,2.473,0.573,3.287,1.47l1.584-2.037C13.611,3.756,11.895,3,10,3z"/>
	<path display="inline" d="M10,17.062c3.171,0,5.846-2.109,6.706-5H19l-2.031-2.611L15.5,7.562l-1.167,1.5l-2.333,3h1.961
		c-0.734,1.451-2.223,2.455-3.961,2.455c-1.308,0-2.473-0.573-3.287-1.471l-1.584,2.037C6.389,16.307,8.105,17.062,10,17.062z"/>
</g>
<g id="Layer_13" display="none">
	<path display="inline" fill-rule="evenodd" clip-rule="evenodd" d="M14,2H5C3.896,2,3,2.896,3,4v7c0,1.104,0.896,2,2,2h3v5l5-5h1
		c1.104,0,2-0.896,2-2V4C16,2.896,15.104,2,14,2z"/>
</g>
<g id="Layer_12" display="none">
	<path display="inline" fill-rule="evenodd" clip-rule="evenodd" d="M14.479,11.591l5.304-5.303
		c-2.003,0.412-3.271-0.207-4.448-0.854c-1.487-0.818-1.709-1.297-2.918-2.092c-1.207-0.795-3.004-0.885-3.505-0.324L7.409,4.521
		L14.479,11.591z"/>
	<path display="inline" d="M13.771,12.299l-1.768,1.768c-0.391,0.391-1.023,0.392-1.414,0L9.53,13.006
		c-0.391-0.391-1.023-0.391-1.414,0C7.51,13.612,7,14.438,6.426,15.216c-0.265,0.359-0.539,0.709-0.849,1.02
		c-1.337,1.336-3.185,2.361-4.179,1.367c-0.995-0.994,0.03-2.843,1.367-4.18c0.31-0.311,0.66-0.584,1.019-0.849
		c0.778-0.573,1.604-1.084,2.21-1.69c0.391-0.391,0.391-1.023,0-1.414L4.934,8.409c-0.391-0.391-0.391-1.023,0-1.414l1.768-1.768
		L13.771,12.299z"/>
</g>
<g id="Layer_11" display="none">
	<g display="inline">
		<path fill-rule="evenodd" clip-rule="evenodd" d="M11.975,11.072l-2.618,2.617l-1.524,1.525c-0.841,0.841-2.206,0.841-3.047,0
			c-0.842-0.843-0.842-2.208,0-3.048l1.523-1.524l2.618-2.618C7.494,7.647,5.909,7.995,4.786,9.118l-1.524,1.525
			c-1.683,1.682-1.683,4.413,0,6.096s4.411,1.683,6.094,0l1.524-1.525C12.005,14.09,12.354,12.507,11.975,11.072z"/>
		<path fill-rule="evenodd" clip-rule="evenodd" d="M17.738,2.262c-1.683-1.684-4.412-1.684-6.096,0l-1.524,1.524
			C8.995,4.909,8.647,6.494,9.025,7.926l2.618-2.618l0.762-0.762l0.762-0.761c0.842-0.842,2.205-0.842,3.047,0
			c0.842,0.841,0.842,2.205,0,3.047l-0.762,0.762l-0.762,0.762l-2.617,2.617c1.435,0.38,3.017,0.031,4.141-1.093l1.524-1.524
			C19.42,6.674,19.42,3.945,17.738,2.262z"/>
	</g>
	<path display="inline" fill-rule="evenodd" clip-rule="evenodd" d="M8.595,12.928c-0.421,0.422-1.102,0.422-1.523,0l0,0
		c-0.421-0.421-0.422-1.102,0-1.522l5.333-5.334c0.421-0.421,1.103-0.421,1.523,0l0,0c0.421,0.421,0.421,1.103,0,1.523L8.595,12.928
		z"/>
</g>
<g id="Layer_10" display="none">
	<path display="inline" fill-rule="evenodd" clip-rule="evenodd" d="M18,12V9.031h-2.173c-0.161-0.696-0.435-1.348-0.8-1.938
		L16.57,5.55l-2.121-2.121l-1.543,1.543C12.325,4.613,11.685,4.343,11,4.181V2H8v2.181c-0.695,0.165-1.345,0.44-1.934,0.808
		L4.528,3.45l-2.099,2.1l1.543,1.543c-0.365,0.59-0.638,1.242-0.799,1.938H1V12h2.181c0.162,0.685,0.432,1.325,0.792,1.907
		L2.429,15.45l2.121,2.121l1.543-1.543C6.675,16.388,7.316,16.657,8,16.819V19h3v-2.181c0.685-0.162,1.325-0.432,1.906-0.791
		l1.543,1.543l2.1-2.1l-1.537-1.537c0.367-0.589,0.643-1.239,0.808-1.935H18z M9.5,13.5c-1.656,0-3-1.344-3-3c0-1.657,1.343-3,3-3
		s3,1.343,3,3C12.5,12.156,11.156,13.5,9.5,13.5z"/>
</g>
<g id="Layer_9" display="none">
	<path display="inline" d="M16.684,9.754c1.259-1.261,1.606-3.071,1.079-4.655l-2.866,2.868l-2.817-2.814l2.895-2.892
		c-1.6-0.562-3.446-0.218-4.726,1.06C8.91,4.659,8.581,6.621,9.258,8.268l-6.517,5.417c-0.988,0.986-0.988,2.586,0,3.574
		c0.988,0.986,2.587,0.986,3.575,0l5.418-6.516C13.382,11.42,15.345,11.092,16.684,9.754z M3.814,16.188
		c-0.396-0.395-0.396-1.035,0-1.43c0.395-0.395,1.034-0.395,1.429,0s0.395,1.035,0,1.43C4.848,16.582,4.209,16.582,3.814,16.188z"/>
</g>
<g id="Layer_8" display="none">
	<path display="inline" fill-rule="evenodd" clip-rule="evenodd" d="M18,16c0,0.553-0.447,1-1,1H4c-0.552,0-1-0.447-1-1V4
		c0-0.552,0.448-1,1-1h13c0.553,0,1,0.448,1,1V16z M9,11H8V5.5C8,5.224,7.776,5,7.5,5S7,5.224,7,5.5V11H6c-0.552,0-1,0.447-1,1
		s0.448,1,1,1h1v1.5C7,14.776,7.224,15,7.5,15S8,14.776,8,14.5V13h1c0.552,0,1-0.447,1-1S9.552,11,9,11z M12,9h1v5.5
		c0,0.276,0.224,0.5,0.5,0.5s0.5-0.224,0.5-0.5V9h1c0.553,0,1-0.447,1-1s-0.447-1-1-1h-1V5.5C14,5.224,13.776,5,13.5,5
		S13,5.224,13,5.5V7h-1c-0.553,0-1,0.447-1,1S11.447,9,12,9z"/>
</g>
<g id="Layer_7" display="none">
	<g display="inline">
		<path fill-rule="evenodd" clip-rule="evenodd" d="M9.996,9.248c2.27,0,2.682-3.435,2.682-3.435C12.945,4.019,12.126,2,9.974,2
			C7.823,2,7.005,4.019,7.271,5.812C7.271,5.812,7.725,9.248,9.996,9.248z"/>
		<path fill-rule="evenodd" clip-rule="evenodd" d="M12.717,9.854L10,11.665L7.234,9.896c-2.536,0-4.476,2.231-4.476,4.482v2.49
			c0,0,3.594,1.131,7.242,1.131c3.592,0,7.241-1.131,7.241-1.131v-2.49C17.241,12.18,15.105,9.854,12.717,9.854z"/>
	</g>
</g>
<g id="Layer_6" display="none">
	<g display="inline">
		<path fill-rule="evenodd" clip-rule="evenodd" d="M10.441,3.209c0.688,1.055,0.57,2.481-0.356,3.408L9.333,7.369
			C8.407,8.294,6.981,8.412,5.925,7.725L4.101,9.549l2.413,2.413l-2.793,2.793c-0.421,0.421-2.706,3.389-2.285,3.809
			c0.42,0.421,3.388-1.864,3.809-2.285l2.793-2.793l2.413,2.413l1.825-1.824c-0.688-1.056-0.57-2.481,0.355-3.408l0.752-0.751
			c0.926-0.926,2.353-1.044,3.408-0.356l1.824-1.825l-6.351-6.35L10.441,3.209z"/>
	</g>
</g>
<g id="Layer_5" display="none">
	<path display="inline" fill-rule="evenodd" clip-rule="evenodd" d="M13,4v7c0,0.553-0.447,1-1,1H2c-0.552,0-1-0.447-1-1V4
		c0-0.552,0.448-1,1-1h1.666l1.333-2.002h4L10.333,3H12C12.553,3,13,3.448,13,4z M7,4.5C5.62,4.5,4.5,5.62,4.5,7S5.62,9.5,7,9.5
		S9.5,8.38,9.5,7S8.38,4.5,7,4.5z"/>
	<g display="inline">
		<path fill-rule="evenodd" clip-rule="evenodd" d="M10,14.051C9.838,14.018,9.671,14,9.5,14C8.119,14,7,15.119,7,16.5
			S8.119,19,9.5,19s2.5-1.119,2.5-2.5V13h-2V14.051z"/>
		<path fill-rule="evenodd" clip-rule="evenodd" d="M17,6h-3v3h3v5.051C16.839,14.018,16.671,14,16.5,14c-1.381,0-2.5,1.119-2.5,2.5
			s1.119,2.5,2.5,2.5s2.5-1.119,2.5-2.5V6H17z"/>
	</g>
</g>
<g id="Layer_4">
	<rect x="6" y="2" fill-rule="evenodd" clip-rule="evenodd" width="10" height="14"/>
	<polygon fill-rule="evenodd" clip-rule="evenodd" points="5,17 5,5 3,5 3,19 13,19 13,17 	"/>
</g>
<g id="Layer_3" display="none">
	<g display="inline">
		<path fill-rule="evenodd" clip-rule="evenodd" d="M13.113,4.358c0.344-0.344,0.204-1.042-0.312-1.558
			c-0.517-0.516-1.214-0.656-1.558-0.312l-3.24,3.24l1.869,1.869L13.113,4.358z"/>
		<path fill-rule="evenodd" clip-rule="evenodd" d="M15.605,6.851l-3.24,3.24l1.869,1.87l3.24-3.241
			c0.344-0.344,0.204-1.042-0.312-1.558C16.646,6.646,15.949,6.506,15.605,6.851z"/>
		<path fill-rule="evenodd" clip-rule="evenodd" d="M5.113,6.129c-0.696,0.695-1.09,2.756-1.09,3.882v3.88l-1.247,1.246
			c-0.586,0.586-0.586,1.537,0,2.123s1.536,0.586,2.122,0l1.247-1.247h3.88c1.188,0,3.103-0.452,3.811-1.161l1.19-0.84L6.023,5.01
			L5.113,6.129z"/>
	</g>
</g>
</svg>
